<svg width="16" height="15" viewBox="0 0 16 15" fill="none" xmlns="http://www.w3.org/2000/svg">
<path d="M7.99983 5.33333V7.99999M7.99983 10.6667H8.0065M6.85983 1.90666L1.21316 11.3333C1.09674 11.5349 1.03514 11.7635 1.03449 11.9963C1.03384 12.2292 1.09416 12.4581 1.20945 12.6603C1.32474 12.8626 1.49098 13.0312 1.69164 13.1492C1.89229 13.2673 2.12036 13.3308 2.35316 13.3333H13.6465C13.8793 13.3308 14.1074 13.2673 14.308 13.1492C14.5087 13.0312 14.6749 12.8626 14.7902 12.6603C14.9055 12.4581 14.9658 12.2292 14.9652 11.9963C14.9645 11.7635 14.9029 11.5349 14.7865 11.3333L9.13983 1.90666C9.02098 1.71073 8.85365 1.54874 8.65396 1.43632C8.45428 1.32389 8.22899 1.26483 7.99983 1.26483C7.77067 1.26483 7.54538 1.32389 7.3457 1.43632C7.14602 1.54874 6.97868 1.71073 6.85983 1.90666Z" stroke="#F05252" stroke-width="1.6" stroke-linecap="round" stroke-linejoin="round"/>
</svg>
